<svg width="45" height="45" viewBox="0 0 45 45" fill="none" xmlns="http://www.w3.org/2000/svg">
<path d="M28.125 20.625V20.6438M9.69942 15.7088C8.87704 15.0767 8.24544 14.2296 7.87441 13.261C7.50338 12.2924 7.40738 11.2401 7.59701 10.2204C7.78665 9.20068 8.25453 8.25324 8.94896 7.4828C9.64338 6.71237 10.5373 6.14894 11.5319 5.85478C12.5265 5.56062 13.5831 5.5472 14.5849 5.81599C15.5867 6.08478 16.4946 6.62531 17.2084 7.37785C17.9222 8.1304 18.414 9.06564 18.6295 10.0802C18.845 11.0948 18.7757 12.1492 18.4294 13.1269" stroke="white" stroke-width="3.75" stroke-linecap="round" stroke-linejoin="round"/>
<path d="M30 7.5V14.6306C32.3205 15.9734 34.0873 18.0983 34.9838 20.625H37.4982C37.9954 20.625 38.4723 20.8225 38.824 21.1742C39.1756 21.5258 39.3732 22.0027 39.3732 22.5V26.25C39.3732 26.7473 39.1756 27.2242 38.824 27.5758C38.4723 27.9275 37.9954 28.125 37.4982 28.125H34.9819C34.3519 29.9062 33.2813 31.5 31.8732 32.7619V36.5625C31.8732 37.3084 31.5768 38.0238 31.0494 38.5512C30.5219 39.0787 29.8066 39.375 29.0607 39.375C28.3147 39.375 27.5994 39.0787 27.0719 38.5512C26.5445 38.0238 26.2482 37.3084 26.2482 36.5625V35.4694C25.6285 35.5732 25.0014 35.6252 24.3732 35.625H16.8732C16.2449 35.6252 15.6178 35.5732 14.9982 35.4694V36.5625C14.9982 37.3084 14.7018 38.0238 14.1744 38.5512C13.6469 39.0787 12.9316 39.375 12.1857 39.375C11.4397 39.375 10.7244 39.0787 10.1969 38.5512C9.66947 38.0238 9.37315 37.3084 9.37315 36.5625V32.7619C7.67433 31.2431 6.47679 29.2442 5.93906 27.0297C5.40132 24.8153 5.54873 22.4898 6.36179 20.361C7.17485 18.2323 8.61521 16.4006 10.4922 15.1084C12.3692 13.8163 14.5944 13.1246 16.8732 13.125H21.5607L29.9982 7.5H30Z" stroke="white" stroke-width="3.75" stroke-linecap="round" stroke-linejoin="round"/>
</svg>
