<svg width="45" height="45" viewBox="0 0 45 45" fill="none" xmlns="http://www.w3.org/2000/svg">
<path d="M11.25 35.625H16.875V24.375H28.125V35.625H33.75V18.75L22.5 10.3125L11.25 18.75V35.625ZM11.25 39.375C10.2188 39.375 9.33625 39.0081 8.6025 38.2744C7.8675 37.5394 7.5 36.6562 7.5 35.625V18.75C7.5 18.1562 7.63312 17.5938 7.89937 17.0625C8.16437 16.5313 8.53125 16.0937 9 15.75L20.25 7.3125C20.5938 7.0625 20.9531 6.875 21.3281 6.75C21.7031 6.625 22.0938 6.5625 22.5 6.5625C22.9062 6.5625 23.2969 6.625 23.6719 6.75C24.0469 6.875 24.4062 7.0625 24.75 7.3125L36 15.75C36.4688 16.0937 36.8363 16.5313 37.1025 17.0625C37.3675 17.5938 37.5 18.1562 37.5 18.75V35.625C37.5 36.6562 37.1331 37.5394 36.3994 38.2744C35.6644 39.0081 34.7812 39.375 33.75 39.375H24.375V28.125H20.625V39.375H11.25Z" fill="white"/>
</svg>
