<svg width="40" height="40" viewBox="0 0 40 40" fill="none" xmlns="http://www.w3.org/2000/svg">
<path d="M35.9375 20C35.9376 17.3486 35.2762 14.7391 34.0133 12.4079C32.7503 10.0766 30.9257 8.0973 28.7047 6.64918C26.4838 5.20106 23.9366 4.3299 21.294 4.11463C18.6514 3.89936 15.9968 4.34677 13.5708 5.41634C11.1447 6.48591 9.02382 8.14384 7.40021 10.2399C5.77661 12.336 4.70159 14.8041 4.27255 17.4205C3.84351 20.0369 4.074 22.7191 4.94313 25.2239C5.81227 27.7288 7.29259 29.9773 9.25 31.7656L9.4375 31.9219C12.3485 34.5072 16.1067 35.9352 20 35.9352C23.8933 35.9352 27.6515 34.5072 30.5625 31.9219L30.75 31.7656C32.386 30.2736 33.6924 28.4564 34.5856 26.4304C35.4789 24.4044 35.9394 22.2142 35.9375 20ZM5.9375 20C5.93436 17.7042 6.49333 15.4426 7.5656 13.4127C8.63786 11.3827 10.1908 9.64615 12.0888 8.35462C13.9868 7.0631 16.1722 6.25589 18.454 6.00351C20.7358 5.75112 23.0448 6.06122 25.1792 6.90674C27.3135 7.75226 29.2085 9.10747 30.6984 10.854C32.1884 12.6006 33.2281 14.6854 33.7268 16.9263C34.2254 19.1673 34.1678 21.4962 33.5591 23.7098C32.9503 25.9233 31.8088 27.9542 30.2344 29.625C28.7577 27.3407 26.5567 25.6184 23.9844 24.7344C25.2685 23.8791 26.2433 22.6333 26.7647 21.1812C27.2861 19.7291 27.3263 18.1477 26.8795 16.671C26.4328 15.1942 25.5226 13.9004 24.2837 12.9808C23.0448 12.0613 21.5429 11.5648 20 11.5648C18.4571 11.5648 16.9552 12.0613 15.7163 12.9808C14.4774 13.9004 13.5673 15.1942 13.1205 16.671C12.6737 18.1477 12.7139 19.7291 13.2353 21.1812C13.7567 22.6333 14.7315 23.8791 16.0156 24.7344C13.4433 25.6184 11.2423 27.3407 9.76563 29.625C7.3046 27.025 5.93448 23.5801 5.9375 20ZM14.6875 18.75C14.6875 17.6993 14.9991 16.6722 15.5828 15.7985C16.1666 14.9249 16.9963 14.244 17.967 13.8419C18.9377 13.4398 20.0059 13.3346 21.0364 13.5396C22.0669 13.7446 23.0135 14.2505 23.7565 14.9935C24.4995 15.7365 25.0054 16.6831 25.2104 17.7136C25.4154 18.7441 25.3102 19.8123 24.9081 20.783C24.506 21.7537 23.8251 22.5834 22.9515 23.1672C22.0778 23.7509 21.0507 24.0625 20 24.0625C18.5923 24.0584 17.2434 23.4973 16.2481 22.5019C15.2527 21.5066 14.6916 20.1577 14.6875 18.75ZM11.1563 30.9375C12.0753 29.4138 13.3725 28.1535 14.9219 27.2786C16.4714 26.4037 18.2206 25.944 20 25.944C21.7794 25.944 23.5286 26.4037 25.0781 27.2786C26.6275 28.1535 27.9247 29.4138 28.8438 30.9375C26.3396 32.9593 23.2184 34.062 20 34.062C16.7816 34.062 13.6604 32.9593 11.1563 30.9375Z" fill="#4B4B4B"/>
</svg>
