<svg width="33" height="33" viewBox="0 0 33 33" fill="none" xmlns="http://www.w3.org/2000/svg">
<path d="M15.5375 26.5375C15.2854 26.2854 15.1534 25.9646 15.1415 25.575C15.1305 25.1854 15.251 24.8646 15.5031 24.6125L22.2406 17.875H6.875C6.48542 17.875 6.15863 17.743 5.89463 17.479C5.63154 17.2159 5.5 16.8896 5.5 16.5C5.5 16.1104 5.63154 15.7836 5.89463 15.5196C6.15863 15.2565 6.48542 15.125 6.875 15.125H22.2406L15.5031 8.3875C15.251 8.13541 15.1305 7.81458 15.1415 7.425C15.1534 7.03541 15.2854 6.71458 15.5375 6.4625C15.7896 6.21041 16.1104 6.08437 16.5 6.08437C16.8896 6.08437 17.2104 6.21041 17.4625 6.4625L26.5375 15.5375C26.675 15.6521 26.7726 15.7951 26.8304 15.9665C26.8872 16.1388 26.9156 16.3167 26.9156 16.5C26.9156 16.6833 26.8872 16.8552 26.8304 17.0156C26.7726 17.176 26.675 17.325 26.5375 17.4625L17.4625 26.5375C17.2104 26.7896 16.8896 26.9156 16.5 26.9156C16.1104 26.9156 15.7896 26.7896 15.5375 26.5375Z" fill="#4B4B4B"/>
</svg>
