<svg width="35" height="35" viewBox="0 0 35 35" fill="none" xmlns="http://www.w3.org/2000/svg">
<path fill-rule="evenodd" clip-rule="evenodd" d="M27.4914 9.408C27.6161 9.28344 27.7151 9.13554 27.7826 8.97274C27.8502 8.80993 27.885 8.63542 27.8851 8.45916C27.8852 8.2829 27.8506 8.10834 27.7832 7.94546C27.7159 7.78257 27.6171 7.63455 27.4926 7.50983C27.368 7.38512 27.2201 7.28616 27.0573 7.21861C26.8945 7.15106 26.72 7.11624 26.5437 7.11613C26.3675 7.11602 26.1929 7.15063 26.03 7.21798C25.8671 7.28533 25.7191 7.38411 25.5944 7.50867L17.5001 15.603L9.40805 7.50867C9.15619 7.2568 8.81458 7.1153 8.45839 7.1153C8.10219 7.1153 7.76059 7.2568 7.50872 7.50867C7.25685 7.76053 7.11536 8.10214 7.11536 8.45833C7.11536 8.81453 7.25685 9.15613 7.50872 9.408L15.6031 17.5L7.50872 25.592C7.38401 25.7167 7.28508 25.8648 7.21759 26.0277C7.15009 26.1907 7.11536 26.3653 7.11536 26.5417C7.11536 26.718 7.15009 26.8927 7.21759 27.0556C7.28508 27.2186 7.38401 27.3666 7.50872 27.4913C7.76059 27.7432 8.10219 27.8847 8.45839 27.8847C8.63476 27.8847 8.8094 27.85 8.97234 27.7825C9.13529 27.715 9.28334 27.616 9.40805 27.4913L17.5001 19.397L25.5944 27.4913C25.8463 27.7429 26.1877 27.8841 26.5437 27.8839C26.8997 27.8837 27.241 27.742 27.4926 27.4902C27.7441 27.2383 27.8853 26.8968 27.8851 26.5408C27.8849 26.1849 27.7433 25.8436 27.4914 25.592L19.3971 17.5L27.4914 9.408Z" fill="black"/>
</svg>
