<svg width="45" height="45" viewBox="0 0 45 45" fill="none" xmlns="http://www.w3.org/2000/svg">
<path d="M22.5176 2.8125C18.4164 2.81715 14.4846 4.44839 11.5847 7.34833C8.68471 10.2483 7.05348 14.1801 7.04883 18.2813C7.04883 31.5176 21.1113 41.5195 21.709 41.9414C21.9485 42.1009 22.2298 42.186 22.5176 42.186C22.8053 42.186 23.0867 42.1009 23.3262 41.9414C23.9238 41.5195 37.9863 31.5176 37.9863 18.2813C37.9817 14.1801 36.3504 10.2483 33.4505 7.34833C30.5506 4.44839 26.6187 2.81715 22.5176 2.8125ZM22.5176 12.6563C23.6301 12.6563 24.7176 12.9862 25.6427 13.6042C26.5677 14.2223 27.2887 15.1008 27.7144 16.1287C28.1401 17.1565 28.2515 18.2875 28.0345 19.3786C27.8175 20.4698 27.2817 21.4721 26.4951 22.2587C25.7084 23.0454 24.7061 23.5811 23.615 23.7982C22.5238 24.0152 21.3928 23.9038 20.365 23.4781C19.3372 23.0523 18.4586 22.3314 17.8406 21.4063C17.2225 20.4813 16.8926 19.3938 16.8926 18.2813C16.8926 16.7894 17.4852 15.3587 18.5401 14.3038C19.595 13.2489 21.0257 12.6563 22.5176 12.6563Z" fill="white"/>
</svg>
